<?xml version="1.0" encoding="UTF-8"?>
<svg id="Layer_1" xmlns="http://www.w3.org/2000/svg" xmlns:xlink="http://www.w3.org/1999/xlink" viewBox="0 0 1728 1149.54">
  <defs>
    <style>
      .cls-1 {
        fill: url(#linear-gradient);
      }
    </style>
    <linearGradient id="linear-gradient" x1="-.47" y1="660.62" x2="1375.04" y2="526.75" gradientUnits="userSpaceOnUse">
      <stop offset="0" stop-color="#ed2924"/>
      <stop offset="1" stop-color="#f4fafa"/>
    </linearGradient>
  </defs>
  <rect class="cls-1" x="-7.54" y="-.85" width="1749.49" height="1154.04"/>
  <path d="M-12.54,317.5V-.85h492.9c-46.34,6.91-91.19,17.71-134.46,32.66-80.37,27.81-151.85,67.4-214.45,118.76C74.62,197.22,26.94,253.17-12.54,317.5ZM5.12,1000.74c-6.12-6.6-11.99-13.4-17.66-20.34v172.8h333.45c-48.93-6.73-94.69-18.14-137.09-34.49-72.05-27.77-131.61-67.08-178.7-117.97ZM695.82,191.48c-37.69-14.67-77.04-22.02-118.03-22.02-60.96,0-117.76,10.22-170.38,30.67-52.65,20.45-99.48,48.76-140.47,84.93-41.01,36.17-74.81,78.41-101.41,126.63-26.59,48.24-43.8,100.15-51.53,155.71-8.88,59.77-7.49,114.82,4.15,165.15,11.64,50.35,32.42,93.87,62.34,130.57,29.92,36.71,68.16,65.55,114.7,86.5,46.55,20.99,100.28,31.46,161.25,31.46,47.63,0,95.29-10.73,142.96-32.24,47.63-21.49,94.76-55.85,141.3-103.04l84.53,62.96,104.23-705.28-120.6,76.06c-37.68-44.03-75.38-73.38-113.03-88.07ZM942.54,114.94l14.26-96.48h463.79c77.56,0,150.7,11.27,219.43,33.81,38.98,12.8,74.55,29.53,106.93,49.92V-.85H710.08c38.19,6.66,74.21,16.95,107.92,31.09,44.98,18.89,86.45,47.25,124.54,84.69ZM1634.2,285.06c-34.91-29.87-78.13-51.9-129.66-66.05-51.53-14.17-109.45-21.25-173.71-21.25h-191.17l-111.37,755.01h156.26c65.37,0,128-7.09,187.84-21.25,59.85-14.15,113.59-36.17,161.25-66.07,47.63-29.87,87.53-68.65,119.68-116.39,32.13-47.7,53.2-105.62,63.17-173.8,9.97-67.1,7.48-124.78-7.49-173.02-14.96-48.22-39.89-87.3-74.8-117.19ZM1668.28,996.03c-66.49,45.62-138.26,79.7-215.27,102.24-77.04,22.56-151.02,33.81-221.93,33.81h-438.86l13.05-88.3c-39.54,28.81-81.5,52.09-126.08,69.42-49.48,19.24-100.01,32.53-151.56,40h1219.32v-220.85c-24.7,23.29-50.86,44.6-78.67,63.68Z"/>
</svg>